<svg xmlns="http://www.w3.org/2000/svg" xmlns:xlink="http://www.w3.org/1999/xlink" xmlns:lucid="lucid" width="890" height="1339.54"><g transform="translate(-100 -180)" lucid:page-tab-id="0_0"><path d="M950 300c0 55.23-49.25 100-110 100s-110-44.77-110-100 49.25-100 110-100 110 44.77 110 100z" stroke="#3a414a" fill="#fff"/><path d="M720 276a6 6 0 0 1 6-6h228a6 6 0 0 1 6 6v48a6 6 0 0 1-6 6H726a6 6 0 0 1-6-6z" stroke="#000" stroke-opacity="0" fill="#fff" fill-opacity="0"/><use xlink:href="#a" transform="matrix(1,0,0,1,725,275) translate(14.983723958333357 30.273437499999993)"/><use xlink:href="#b" transform="matrix(1,0,0,1,725,275) translate(54.990234375000014 30.273437499999993)"/><path d="M840 401v162.15" stroke="#3a414a" fill="none"/><path d="M840 400.5h.5v.5h-1v-.5z" stroke="#3a414a" stroke-width=".05" fill="#3a414a"/><path d="M840 577.9l-4.64-14.25h9.28z" stroke="#3a414a" fill="#3a414a"/><path d="M160 246a6 6 0 0 1 6-6h148a6 6 0 0 1 6 6v108a6 6 0 0 1-6 6H166a6 6 0 0 1-6-6z" stroke="#3a414a" fill="#fff"/><path d="M120 276a6 6 0 0 1 6-6h228a6 6 0 0 1 6 6v48a6 6 0 0 1-6 6H126a6 6 0 0 1-6-6z" stroke="#000" stroke-opacity="0" fill="#fff" fill-opacity="0"/><use xlink:href="#c" transform="matrix(1,0,0,1,125,275) translate(74.99348958333334 30.273437499999993)"/><path d="M320.96 300h382.7" stroke="#3a414a" fill="none"/><path d="M320.98 300.5h-.52v-1h.52z" stroke="#3a414a" stroke-width=".05" fill="#3a414a"/><path d="M718.42 300l-14.27 4.64v-9.28z" stroke="#3a414a" fill="#3a414a"/><path d="M783.26 585.34A9.83 9.83 0 0 1 792 580h96a9.83 9.83 0 0 1 8.74 5.34l30.52 59.32a11.67 11.67 0 0 1 0 10.68l-30.52 59.32A9.83 9.83 0 0 1 888 720h-96a9.83 9.83 0 0 1-8.74-5.34l-30.52-59.32a11.67 11.67 0 0 1 0-10.68z" stroke="#3a414a" fill="#fff"/><path d="M720 607.67a6 6 0 0 1 6-6h228a6 6 0 0 1 6 6v64.66a6 6 0 0 1-6 6H726a6 6 0 0 1-6-6z" stroke="#000" stroke-opacity="0" fill="#fff" fill-opacity="0"/><use xlink:href="#d" transform="matrix(1,0,0,1,725,606.6666666666666) translate(74.99348958333334 28.242187499999993)"/><use xlink:href="#e" transform="matrix(1,0,0,1,725,606.6666666666666) translate(34.986979166666686 50.46440972222221)"/><path d="M840 720.97v62.18" stroke="#3a414a" fill="none"/><path d="M840.5 720.98h-1v-.5h1z" stroke="#3a414a" stroke-width=".05" fill="#3a414a"/><path d="M840 797.92l-4.64-14.27h9.28z" stroke="#3a414a" fill="#3a414a"/><path d="M760 806a6 6 0 0 1 6-6h148a6 6 0 0 1 6 6v108a6 6 0 0 1-6 6H766a6 6 0 0 1-6-6z" stroke="#3a414a" fill="#fff"/><path d="M776 800v120m128-120v120" stroke="#3a414a" fill="none"/><path d="M710 820.17a6 6 0 0 1 6-6h248a6 6 0 0 1 6 6v64.66a6 6 0 0 1-6 6H716a6 6 0 0 1-6-6z" stroke="#000" stroke-opacity="0" fill="#fff" fill-opacity="0"/><use xlink:href="#f" transform="matrix(1,0,0,1,715,819.1666666666666) translate(66.32378472222226 39.34374999999999)"/><path d="M760 1006a6 6 0 0 1 6-6h148a6 6 0 0 1 6 6v108a6 6 0 0 1-6 6H766a6 6 0 0 1-6-6z" stroke="#3a414a" fill="#fff"/><path d="M776 1000v120m128-120v120" stroke="#3a414a" fill="none"/><path d="M710 1026a6 6 0 0 1 6-6h248a6 6 0 0 1 6 6v64.67a6 6 0 0 1-6 6H716a6 6 0 0 1-6-6z" stroke="#000" stroke-opacity="0" fill="#fff" fill-opacity="0"/><use xlink:href="#g" transform="matrix(1,0,0,1,715,1025) translate(87.6605902777778 39.34374999999999)"/><path d="M840 920.96v62.2" stroke="#3a414a" fill="none"/><path d="M840.5 920.98h-1v-.52h1z" stroke="#3a414a" stroke-width=".05" fill="#3a414a"/><path d="M840 997.92l-4.64-14.27h9.28z" stroke="#3a414a" fill="#3a414a"/><path d="M760 1186a6 6 0 0 1 6-6h148a6 6 0 0 1 6 6v108a6 6 0 0 1-6 6H766a6 6 0 0 1-6-6z" stroke="#3a414a" fill="#fff"/><path d="M776 1180v120m128-120v120" stroke="#3a414a" fill="none"/><path d="M710 1206a6 6 0 0 1 6-6h248a6 6 0 0 1 6 6v64.67a6 6 0 0 1-6 6H716a6 6 0 0 1-6-6z" stroke="#000" stroke-opacity="0" fill="#fff" fill-opacity="0"/><use xlink:href="#h" transform="matrix(1,0,0,1,715,1205) translate(92.99479166666669 39.34374999999999)"/><path d="M840 1120.96v42.2" stroke="#3a414a" fill="none"/><path d="M840.5 1120.98h-1v-.52h1z" stroke="#3a414a" stroke-width=".05" fill="#3a414a"/><path d="M840 1177.92l-4.64-14.27h9.28z" stroke="#3a414a" fill="#3a414a"/><path d="M760 1385.54a6 6 0 0 1 6-6h148a6 6 0 0 1 6 6v108a6 6 0 0 1-6 6H766a6 6 0 0 1-6-6z" stroke="#3a414a" fill="#fff"/><path d="M776 1379.54v120m128-120v120" stroke="#3a414a" fill="none"/><path d="M710 1405.54a6 6 0 0 1 6-6h248a6 6 0 0 1 6 6v64.66a6 6 0 0 1-6 6H716a6 6 0 0 1-6-6z" stroke="#000" stroke-opacity="0" fill="#fff" fill-opacity="0"/><use xlink:href="#i" transform="matrix(1,0,0,1,715,1404.5367444084072) translate(82.32638888888891 39.34374999999999)"/><path d="M840 1300.96v61.73" stroke="#3a414a" fill="none"/><path d="M840.5 1300.98h-1v-.52h1z" stroke="#3a414a" stroke-width=".05" fill="#3a414a"/><path d="M840 1377.46l-4.64-14.27h9.28z" stroke="#3a414a" fill="#3a414a"/><path d="M759.04 1439.54H246a6 6 0 0 1-6-6V376.84" stroke="#3a414a" fill="none"/><path d="M759.54 1440.04h-.52v-1h.52z" stroke="#3a414a" stroke-width=".05" fill="#3a414a"/><path d="M240 362.08l4.64 14.27h-9.28z" stroke="#3a414a" fill="#3a414a"/><defs><path fill="#3a414a" d="M285-1169c8 382 2 780 4 1169H129v-1349h237c86 239 188 461 253 720 69-258 169-481 255-720h225V0H937c2-390-5-788 6-1169-75 255-170 488-259 729H547c-90-240-185-475-262-729" id="j"/><path fill="#3a414a" d="M802-711c201 25 350 118 350 331C1152-95 921 0 634 0H162v-1349c401 9 908-74 908 327 0 184-111 275-268 311zm-224-69c174-2 300-51 300-218 0-163-124-198-302-198H353v416h225zM353-153c281-2 612 44 606-244-5-271-329-233-606-234v478" id="k"/><g id="a"><use transform="matrix(0.01085069444444444,0,0,0.01085069444444444,0,0)" xlink:href="#j"/><use transform="matrix(0.01085069444444444,0,0,0.01085069444444444,13.335503472222218,0)" xlink:href="#k"/></g><path fill="#3a414a" d="M473-1349c438-1 655 221 652 661C1122-268 945-8 532 0H162v-1349h311zm42 1193c308-4 416-205 418-532 2-330-131-509-459-505H353v1037h162" id="l"/><path fill="#3a414a" d="M617-1102c355 0 481 238 477 599H322c5 222 84 388 301 388 144 0 244-59 284-166l158 45C1002-72 854 20 623 20c-342 0-490-220-490-568 0-346 151-554 484-554zm291 461c-18-192-90-328-289-328-194 0-287 128-295 328h584" id="m"/><path fill="#3a414a" d="M715 0H502L69-1082h202c94 253 197 500 285 758 19 57 36 126 52 183 96-335 234-626 350-941h201" id="n"/><path fill="#3a414a" d="M736-142h380V0H134v-142h422v-1200H267v-142h469v1342" id="o"/><path fill="#3a414a" d="M615-1102c343 0 484 203 482 560-1 347-147 562-488 562-336 0-475-219-479-562-4-349 156-560 485-560zm-8 989c240 0 301-180 301-429 0-245-55-427-290-427-236 0-299 181-299 427 0 243 61 429 288 429" id="p"/><path fill="#3a414a" d="M698-1104c312 3 392 244 392 558 0 315-82 566-392 566-169 0-277-65-331-184h-5c8 188 2 394 4 589H185V-858c0-76-1-156-6-224h175c6 52 9 120 10 178h4c58-122 150-202 330-200zm-49 991c225 0 255-203 255-433 0-225-32-419-253-419-236 0-285 192-285 441 0 237 53 411 283 411" id="q"/><path fill="#3a414a" d="M904-1102c199 0 220 177 220 381V0H956v-686c-3-114 0-215-60-264-70-33-125-4-158 71-26 56-39 140-39 252V0H531v-686c-3-114-1-215-61-264-78-41-136 24-157 84-24 69-39 159-39 259V0H105c-3-360 6-732-6-1082h149c6 50 3 123 8 175 36-100 83-195 216-195 135 0 166 79 196 196 42-105 93-196 236-196" id="r"/><path fill="#3a414a" d="M706-1102c241 0 344 136 343 381V0H868v-695c1-168-57-273-220-268-190 6-283 138-283 336V0H185c-3-360 6-732-6-1082h170c4 54 7 126 8 185h3c63-121 164-204 346-205" id="s"/><path fill="#3a414a" d="M682 16c-209 0-323-80-324-285v-671H190v-142h170l58-282h120v282h432v142H538v652c2 114 60 155 182 155 106 0 209-16 297-34v137C921-4 806 16 682 16" id="t"/><path fill="#3a414a" d="M873-819c-18-114-119-146-250-146-163 0-245 50-245 151 0 151 170 148 294 185 182 54 388 94 388 320 0 240-189 325-439 329-245 4-410-69-454-268l159-31c24 133 136 168 295 165 144-2 270-31 270-171 0-164-195-160-331-202-167-52-350-87-350-299 0-218 173-315 413-313 220 2 373 77 412 260" id="u"/><g id="b"><use transform="matrix(0.01085069444444444,0,0,0.01085069444444444,0,0)" xlink:href="#l"/><use transform="matrix(0.01085069444444444,0,0,0.01085069444444444,13.335503472222218,0)" xlink:href="#m"/><use transform="matrix(0.01085069444444444,0,0,0.01085069444444444,26.671006944444436,0)" xlink:href="#n"/><use transform="matrix(0.01085069444444444,0,0,0.01085069444444444,40.00651041666666,0)" xlink:href="#m"/><use transform="matrix(0.01085069444444444,0,0,0.01085069444444444,53.34201388888887,0)" xlink:href="#o"/><use transform="matrix(0.01085069444444444,0,0,0.01085069444444444,66.67751736111109,0)" xlink:href="#p"/><use transform="matrix(0.01085069444444444,0,0,0.01085069444444444,80.0130208333333,0)" xlink:href="#q"/><use transform="matrix(0.01085069444444444,0,0,0.01085069444444444,93.34852430555553,0)" xlink:href="#r"/><use transform="matrix(0.01085069444444444,0,0,0.01085069444444444,106.68402777777771,0)" xlink:href="#m"/><use transform="matrix(0.01085069444444444,0,0,0.01085069444444444,120.01953124999994,0)" xlink:href="#s"/><use transform="matrix(0.01085069444444444,0,0,0.01085069444444444,133.35503472222217,0)" xlink:href="#t"/><use transform="matrix(0.01085069444444444,0,0,0.01085069444444444,146.6905381944444,0)" xlink:href="#u"/></g><path fill="#3a414a" d="M650-1214c-281 0-336 244-336 533 0 295 60 546 347 546 188 0 263-142 322-282l159 65C1058-155 935 20 659 20c-401 0-546-295-546-701 0-407 135-689 536-689 264 0 391 146 466 335l-168 65c-47-129-127-244-297-244" id="v"/><path fill="#3a414a" d="M745-142h380V0H143v-142h422v-798H246v-142h499v940zM545-1292v-192h200v192H545" id="w"/><g id="c"><use transform="matrix(0.01085069444444444,0,0,0.01085069444444444,0,0)" xlink:href="#v"/><use transform="matrix(0.01085069444444444,0,0,0.01085069444444444,13.335503472222218,0)" xlink:href="#o"/><use transform="matrix(0.01085069444444444,0,0,0.01085069444444444,26.671006944444436,0)" xlink:href="#w"/><use transform="matrix(0.01085069444444444,0,0,0.01085069444444444,40.00651041666666,0)" xlink:href="#m"/><use transform="matrix(0.01085069444444444,0,0,0.01085069444444444,53.34201388888887,0)" xlink:href="#s"/><use transform="matrix(0.01085069444444444,0,0,0.01085069444444444,66.67751736111109,0)" xlink:href="#t"/></g><path fill="#3a414a" d="M655-135c108 0 195-33 260-74v-336H622v-160h479v572C981-54 839 20 639 20c-388 0-526-306-526-701 0-406 129-689 529-689 261 0 392 137 461 331l-171 56c-47-131-122-231-288-231-281 0-330 245-330 533 0 179 28 314 84 407s142 139 257 139" id="x"/><path fill="#3a414a" d="M1000-272c3 95 12 159 101 161 21 0 41-3 59-7V-6c-44 10-86 16-139 16-141 2-191-84-197-217h-6C748-76 648 20 446 20c-207 0-318-120-318-322 0-266 194-348 454-354l236-4c12-191-40-305-222-305-140 0-220 47-232 172l-188-17c33-204 181-292 423-292 255 0 401 118 401 364v466zm-683-27c0 109 63 184 175 182 166-3 259-96 306-217 24-65 20-120 20-200-232 7-501-28-501 235" id="y"/><path fill="#3a414a" d="M648-963c-190 6-283 138-283 336V0H185v-1484h181c-2 197 6 404-9 587h3c62-120 159-205 339-205 242 0 351 135 350 381V0H868v-695c1-168-57-273-220-268" id="z"/><path fill="#3a414a" d="M839-1102c70 0 148 7 206 17v167c-112-18-268-36-363 15-129 69-208 203-208 395V0H294c-10-367 32-789-52-1082h171c21 75 41 161 48 250h5c67-152 152-270 373-270" id="A"/><g id="d"><use transform="matrix(0.01085069444444444,0,0,0.01085069444444444,0,0)" xlink:href="#x"/><use transform="matrix(0.01085069444444444,0,0,0.01085069444444444,13.335503472222218,0)" xlink:href="#y"/><use transform="matrix(0.01085069444444444,0,0,0.01085069444444444,26.671006944444436,0)" xlink:href="#t"/><use transform="matrix(0.01085069444444444,0,0,0.01085069444444444,40.00651041666666,0)" xlink:href="#z"/><use transform="matrix(0.01085069444444444,0,0,0.01085069444444444,53.34201388888887,0)" xlink:href="#m"/><use transform="matrix(0.01085069444444444,0,0,0.01085069444444444,66.67751736111109,0)" xlink:href="#A"/></g><path fill="#3a414a" d="M530 26c-303-6-392-228-392-558 0-187 33-329 98-424s162-142 293-142c178 0 273 69 334 184 1-56 3-122 12-169h175c-6 88-6 180-6 282V425H863c1-202-4-411 4-607h-2C805-59 713 29 530 26zm47-139c234 0 286-193 286-441 0-238-55-411-284-411-223 0-255 198-255 427 0 227 33 425 253 425" id="B"/><path fill="#3a414a" d="M528 20c-247 0-343-132-343-381v-721h180v686c-4 177 45 284 224 277 194-8 279-136 279-336v-627h181c3 360-6 732 6 1082H885c-4-54-7-126-8-185h-3C809-64 714 20 528 20" id="C"/><g id="e"><use transform="matrix(0.01085069444444444,0,0,0.01085069444444444,0,0)" xlink:href="#A"/><use transform="matrix(0.01085069444444444,0,0,0.01085069444444444,13.335503472222218,0)" xlink:href="#m"/><use transform="matrix(0.01085069444444444,0,0,0.01085069444444444,26.671006944444436,0)" xlink:href="#B"/><use transform="matrix(0.01085069444444444,0,0,0.01085069444444444,40.00651041666666,0)" xlink:href="#C"/><use transform="matrix(0.01085069444444444,0,0,0.01085069444444444,53.34201388888887,0)" xlink:href="#w"/><use transform="matrix(0.01085069444444444,0,0,0.01085069444444444,66.67751736111109,0)" xlink:href="#A"/><use transform="matrix(0.01085069444444444,0,0,0.01085069444444444,80.0130208333333,0)" xlink:href="#m"/><use transform="matrix(0.01085069444444444,0,0,0.01085069444444444,93.34852430555553,0)" xlink:href="#r"/><use transform="matrix(0.01085069444444444,0,0,0.01085069444444444,106.68402777777771,0)" xlink:href="#m"/><use transform="matrix(0.01085069444444444,0,0,0.01085069444444444,120.01953124999994,0)" xlink:href="#s"/><use transform="matrix(0.01085069444444444,0,0,0.01085069444444444,133.35503472222217,0)" xlink:href="#t"/><use transform="matrix(0.01085069444444444,0,0,0.01085069444444444,146.6905381944444,0)" xlink:href="#u"/></g><g id="f"><use transform="matrix(0.00868055555555555,0,0,0.00868055555555555,0,0)" xlink:href="#l"/><use transform="matrix(0.00868055555555555,0,0,0.00868055555555555,10.668402777777771,0)" xlink:href="#m"/><use transform="matrix(0.00868055555555555,0,0,0.00868055555555555,21.336805555555543,0)" xlink:href="#n"/><use transform="matrix(0.00868055555555555,0,0,0.00868055555555555,32.005208333333314,0)" xlink:href="#m"/><use transform="matrix(0.00868055555555555,0,0,0.00868055555555555,42.673611111111086,0)" xlink:href="#o"/><use transform="matrix(0.00868055555555555,0,0,0.00868055555555555,53.34201388888886,0)" xlink:href="#p"/><use transform="matrix(0.00868055555555555,0,0,0.00868055555555555,64.01041666666663,0)" xlink:href="#q"/><use transform="matrix(0.00868055555555555,0,0,0.00868055555555555,74.6788194444444,0)" xlink:href="#r"/><use transform="matrix(0.00868055555555555,0,0,0.00868055555555555,85.34722222222217,0)" xlink:href="#m"/><use transform="matrix(0.00868055555555555,0,0,0.00868055555555555,96.01562499999994,0)" xlink:href="#s"/><use transform="matrix(0.00868055555555555,0,0,0.00868055555555555,106.68402777777771,0)" xlink:href="#t"/></g><path fill="#3a414a" d="M709-1193V0H519v-1193H76v-156h1076v156H709" id="D"/><path fill="#3a414a" d="M1048-32c-2 300-135 456-433 456-222-1-358-88-400-267l184-25c22 99 100 157 222 156 184-2 248-125 248-315 0-64 3-133-2-194C807-100 706-13 524-12c-306 0-381-228-381-537 0-318 85-550 400-550 164 0 271 83 325 202h3c1-60 3-134 12-185h171c-13 339-4 702-6 1050zM585-145c210-8 284-178 284-406 0-192-52-331-177-392-33-16-69-22-104-22-223 2-259 184-259 414 0 229 31 415 256 406" id="E"/><g id="g"><use transform="matrix(0.00868055555555555,0,0,0.00868055555555555,0,0)" xlink:href="#D"/><use transform="matrix(0.00868055555555555,0,0,0.00868055555555555,10.668402777777771,0)" xlink:href="#m"/><use transform="matrix(0.00868055555555555,0,0,0.00868055555555555,21.336805555555543,0)" xlink:href="#u"/><use transform="matrix(0.00868055555555555,0,0,0.00868055555555555,32.005208333333314,0)" xlink:href="#t"/><use transform="matrix(0.00868055555555555,0,0,0.00868055555555555,42.673611111111086,0)" xlink:href="#w"/><use transform="matrix(0.00868055555555555,0,0,0.00868055555555555,53.34201388888886,0)" xlink:href="#s"/><use transform="matrix(0.00868055555555555,0,0,0.00868055555555555,64.01041666666663,0)" xlink:href="#E"/></g><path fill="#3a414a" d="M1121-976c0 225-142 341-344 379L1177 0H957L591-575H353V0H162v-1349h482c281 3 477 100 477 373zM633-726c181-1 296-73 296-247 0-149-101-223-304-223H353v470h280" id="F"/><path fill="#3a414a" d="M1018 0H814c-67-224-138-444-200-673C552-442 476-224 407 0H204L21-1082h178c43 310 105 601 126 933 54-225 128-425 193-638h193c63 212 134 415 185 638 22-336 90-622 136-933h176" id="G"/><g id="h"><use transform="matrix(0.00868055555555555,0,0,0.00868055555555555,0,0)" xlink:href="#F"/><use transform="matrix(0.00868055555555555,0,0,0.00868055555555555,10.668402777777771,0)" xlink:href="#m"/><use transform="matrix(0.00868055555555555,0,0,0.00868055555555555,21.336805555555543,0)" xlink:href="#n"/><use transform="matrix(0.00868055555555555,0,0,0.00868055555555555,32.005208333333314,0)" xlink:href="#w"/><use transform="matrix(0.00868055555555555,0,0,0.00868055555555555,42.673611111111086,0)" xlink:href="#m"/><use transform="matrix(0.00868055555555555,0,0,0.00868055555555555,53.34201388888886,0)" xlink:href="#G"/></g><path fill="#3a414a" d="M875 0v-623H353V0H162v-1349h191v566h522v-566h191V0H875" id="H"/><path fill="#3a414a" d="M865-914c-3-187-2-380-2-570h180v1261c0 76 1 155 6 223H877c-8-49-9-116-10-174h-5C801-44 708 26 530 26c-135 0-234-46-297-139s-95-232-95-419c0-377 131-566 392-566 176 0 271 63 335 184zm-286-51c-222 0-255 197-255 427 0 229 31 425 253 425 237 0 286-195 286-441 0-238-52-411-284-411" id="I"/><g id="i"><use transform="matrix(0.00868055555555555,0,0,0.00868055555555555,0,0)" xlink:href="#H"/><use transform="matrix(0.00868055555555555,0,0,0.00868055555555555,10.668402777777771,0)" xlink:href="#y"/><use transform="matrix(0.00868055555555555,0,0,0.00868055555555555,21.336805555555543,0)" xlink:href="#s"/><use transform="matrix(0.00868055555555555,0,0,0.00868055555555555,32.005208333333314,0)" xlink:href="#I"/><use transform="matrix(0.00868055555555555,0,0,0.00868055555555555,42.673611111111086,0)" xlink:href="#p"/><use transform="matrix(0.00868055555555555,0,0,0.00868055555555555,53.34201388888886,0)" xlink:href="#n"/><use transform="matrix(0.00868055555555555,0,0,0.00868055555555555,64.01041666666663,0)" xlink:href="#m"/><use transform="matrix(0.00868055555555555,0,0,0.00868055555555555,74.6788194444444,0)" xlink:href="#A"/></g></defs></g></svg>