<?xml version="1.0"?>
<svg xmlns="http://www.w3.org/2000/svg" xmlns:xlink="http://www.w3.org/1999/xlink" xmlns:svgjs="http://svgjs.com/svgjs" version="1.1" width="512" height="512" x="0" y="0" viewBox="0 0 24 24" style="enable-background:new 0 0 512 512" xml:space="preserve"><g><path xmlns="http://www.w3.org/2000/svg" d="M5,19h6v2H7a1,1,0,0,0,0,2H17a1,1,0,0,0,0-2H13V19h6a5.009,5.009,0,0,0,4.9-4H.1A5.009,5.009,0,0,0,5,19Z" fill="#ffffff" data-original="#000000"/><path xmlns="http://www.w3.org/2000/svg" d="M19,1H5A5.006,5.006,0,0,0,0,6v7H24V6A5.006,5.006,0,0,0,19,1Z" fill="#ffffff" data-original="#000000"/></g></svg>
